<?xml version="1.0" encoding="UTF-8"?>
<svg id="_Слой_1" data-name="Слой 1" xmlns="http://www.w3.org/2000/svg" xmlns:xlink="http://www.w3.org/1999/xlink" viewBox="0 0 1973.19 474.29">
  <defs>
    <style>
      .cls-1 {
        fill: url(#GradientFill_3);
      }

      .cls-1, .cls-2, .cls-3, .cls-4, .cls-5, .cls-6, .cls-7, .cls-8, .cls-9 {
        stroke-width: 0px;
      }

      .cls-1, .cls-2, .cls-3, .cls-4, .cls-5, .cls-7, .cls-8, .cls-9 {
        fill-rule: evenodd;
      }

      .cls-2 {
        fill: url(#GradientFill_2);
      }

      .cls-3 {
        fill: url(#GradientFill_5);
      }

      .cls-4 {
        fill: url(#GradientFill_1);
      }

      .cls-5 {
        fill: url(#GradientFill_6);
      }

      .cls-6 {
        fill: #203c58;
      }

      .cls-7 {
        fill: url(#GradientFill_7);
      }

      .cls-8 {
        fill: url(#GradientFill_4);
      }

      .cls-9 {
        fill: #008bcc;
      }
    </style>
    <linearGradient id="GradientFill_1" data-name="GradientFill 1" x1="141" y1="443.12" x2="333.29" y2="443.12" gradientUnits="userSpaceOnUse">
      <stop offset="0" stop-color="#0d4c84"/>
      <stop offset="1" stop-color="#093351"/>
    </linearGradient>
    <linearGradient id="GradientFill_2" data-name="GradientFill 2" x1=".07" y1="270.3" x2="474.23" y2="270.3" gradientUnits="userSpaceOnUse">
      <stop offset="0" stop-color="#ed8b5c"/>
      <stop offset=".47" stop-color="#ec632b"/>
      <stop offset="1" stop-color="#8f2807"/>
    </linearGradient>
    <linearGradient id="GradientFill_3" data-name="GradientFill 3" x1="1.22" y1="171.88" x2="473.07" y2="171.88" gradientUnits="userSpaceOnUse">
      <stop offset="0" stop-color="#e3e0e2"/>
      <stop offset=".1" stop-color="#fef8e3"/>
      <stop offset=".62" stop-color="#ffd000"/>
      <stop offset=".87" stop-color="#d66d1a"/>
      <stop offset="1" stop-color="#a53d15"/>
    </linearGradient>
    <linearGradient id="GradientFill_4" data-name="GradientFill 4" x1="55.91" y1="42.11" x2="418.39" y2="42.11" gradientUnits="userSpaceOnUse">
      <stop offset="0" stop-color="#e16706"/>
      <stop offset="1" stop-color="#fec900"/>
    </linearGradient>
    <linearGradient id="GradientFill_5" data-name="GradientFill 5" x1="7.93" y1="355.05" x2="466.36" y2="355.05" gradientUnits="userSpaceOnUse">
      <stop offset="0" stop-color="#d4d7df"/>
      <stop offset=".49" stop-color="#2f90c6"/>
      <stop offset="1" stop-color="#004870"/>
    </linearGradient>
    <linearGradient id="GradientFill_6" data-name="GradientFill 6" x1="0" y1="227.7" x2="474.29" y2="227.7" gradientUnits="userSpaceOnUse">
      <stop offset="0" stop-color="#e1e1df"/>
      <stop offset=".09" stop-color="#e9e9da"/>
      <stop offset=".52" stop-color="#cfd700"/>
      <stop offset="1" stop-color="#086323"/>
    </linearGradient>
    <linearGradient id="GradientFill_7" data-name="GradientFill 7" x1="25.13" y1="107.53" x2="449.17" y2="107.53" gradientUnits="userSpaceOnUse">
      <stop offset="0" stop-color="#edc422"/>
      <stop offset=".84" stop-color="#f4eacf"/>
      <stop offset="1" stop-color="#c3beb9"/>
    </linearGradient>
  </defs>
  <g>
    <g>
      <path class="cls-6" d="M558.16,409.88c-7.17,0-13.18-1.59-18.05-4.78-4.87-3.18-8.53-7.59-11-13.22-2.47-5.63-3.7-12.13-3.7-19.5s1.23-13.87,3.7-19.5c2.47-5.63,6.13-10.04,11-13.22,4.87-3.18,10.88-4.78,18.05-4.78,8.37,0,15.16,2.17,20.38,6.5,5.22,4.33,8.76,10.13,10.62,17.4l-5.95,1.45c-1.53-6.03-4.39-10.82-8.57-14.38-4.18-3.55-9.68-5.32-16.48-5.32-5.9,0-10.81,1.35-14.73,4.05-3.92,2.7-6.87,6.45-8.85,11.25-1.98,4.8-2.99,10.32-3.02,16.55-.07,6.23.89,11.74,2.88,16.53,1.98,4.78,4.96,8.53,8.93,11.25,3.97,2.72,8.9,4.07,14.8,4.07,6.8,0,12.29-1.78,16.48-5.35,4.18-3.57,7.04-8.35,8.57-14.35l5.95,1.45c-1.87,7.27-5.41,13.07-10.62,17.4-5.22,4.33-12.01,6.5-20.38,6.5Z"/>
      <path class="cls-6" d="M600.16,408.38v-72h54.05v72h-5.75v-66.4h-42.55v66.4h-5.75Z"/>
      <path class="cls-6" d="M668.21,408.38v-72h27.15c.7,0,1.46.03,2.27.08.82.05,1.68.16,2.58.33,3.6.57,6.69,1.86,9.27,3.88,2.58,2.02,4.56,4.55,5.93,7.6,1.37,3.05,2.05,6.41,2.05,10.08s-.68,7.08-2.05,10.12c-1.37,3.05-3.34,5.58-5.93,7.6-2.58,2.02-5.68,3.31-9.27,3.88-.9.13-1.76.23-2.58.3-.82.07-1.57.1-2.27.1h-21.4v28.05h-5.75ZM673.96,374.68h21.3c.6,0,1.29-.03,2.08-.1.78-.07,1.58-.17,2.38-.3,2.6-.53,4.77-1.59,6.5-3.18,1.73-1.58,3.03-3.49,3.9-5.72.87-2.23,1.3-4.58,1.3-7.05s-.43-4.81-1.3-7.03c-.87-2.22-2.17-4.12-3.9-5.7-1.73-1.58-3.9-2.64-6.5-3.17-.8-.17-1.59-.28-2.38-.35-.78-.07-1.48-.1-2.08-.1h-21.3v32.7Z"/>
      <path class="cls-6" d="M721.46,408.38l25.5-72h7.15l25.5,72h-6.1l-24.5-69h2.9l-24.35,69h-6.1ZM732.01,390.28v-5.45h37v5.45h-37Z"/>
      <path class="cls-6" d="M788.61,408.38v-72h27.55c3.73,0,7.09.79,10.08,2.38,2.98,1.58,5.33,3.74,7.05,6.47,1.72,2.73,2.58,5.82,2.58,9.25,0,3.87-1.07,7.34-3.2,10.43-2.13,3.08-4.97,5.24-8.5,6.47l-.2-2.4c4.73,1.43,8.49,3.83,11.28,7.18,2.78,3.35,4.17,7.49,4.17,12.42,0,4.13-.91,7.67-2.72,10.62-1.82,2.95-4.33,5.22-7.53,6.8-3.2,1.58-6.83,2.38-10.9,2.38h-29.65ZM794.41,367.73h21.7c2.5,0,4.79-.58,6.88-1.75,2.08-1.17,3.74-2.76,4.97-4.77s1.85-4.33,1.85-6.92c0-3.7-1.31-6.68-3.92-8.95-2.62-2.27-5.88-3.4-9.78-3.4h-21.7v25.8ZM794.41,402.73h21.95c3.2,0,6.08-.55,8.62-1.65,2.55-1.1,4.57-2.68,6.05-4.75,1.48-2.07,2.23-4.57,2.23-7.5s-.68-5.53-2.03-7.88c-1.35-2.35-3.17-4.22-5.47-5.6-2.3-1.38-4.88-2.07-7.75-2.07h-23.6v29.45Z"/>
      <path class="cls-6" d="M878.06,409.88c-7.17,0-13.18-1.59-18.05-4.78-4.87-3.18-8.53-7.59-11-13.22-2.47-5.63-3.7-12.13-3.7-19.5s1.23-13.87,3.7-19.5c2.47-5.63,6.13-10.04,11-13.22,4.87-3.18,10.88-4.78,18.05-4.78s13.17,1.59,18.03,4.78c4.85,3.18,8.51,7.59,10.97,13.22,2.47,5.63,3.7,12.13,3.7,19.5s-1.23,13.87-3.7,19.5c-2.47,5.63-6.12,10.04-10.97,13.22-4.85,3.18-10.86,4.78-18.03,4.78ZM878.06,404.23c5.9.03,10.82-1.31,14.75-4.02,3.93-2.72,6.88-6.48,8.85-11.28s2.95-10.32,2.95-16.55-.98-11.75-2.95-16.55-4.92-8.55-8.85-11.25c-3.93-2.7-8.85-4.05-14.75-4.05-5.9-.03-10.81,1.3-14.72,4-3.92,2.7-6.86,6.46-8.83,11.27-1.97,4.82-2.98,10.34-3.05,16.58-.07,6.23.89,11.74,2.88,16.53,1.98,4.78,4.96,8.53,8.92,11.25,3.97,2.72,8.9,4.07,14.8,4.07Z"/>
      <path class="cls-6" d="M964.66,408.38v-34.4l2.05,3.2c-2.37,1.63-5.22,2.98-8.55,4.03-3.33,1.05-7.17,1.58-11.5,1.58-6.3,0-11.35-1.14-15.15-3.43-3.8-2.28-6.54-5.43-8.22-9.45-1.68-4.02-2.53-8.59-2.53-13.73v-19.8h5.8v17.6c0,3.63.38,6.88,1.12,9.73.75,2.85,1.93,5.27,3.55,7.25s3.71,3.48,6.28,4.5c2.57,1.02,5.65,1.52,9.25,1.52,4.63,0,8.63-.68,12-2.05,3.37-1.37,5.87-2.85,7.5-4.45l-1.6,5.85v-39.95h5.8v72h-5.8Z"/>
      <path class="cls-6" d="M984.45,408.38v-72h5.75v33.2h41.7v-33.2h5.8v72h-5.8v-33.2h-41.7v33.2h-5.75Z"/>
      <path class="cls-6" d="M1099.2,408.38v-61.85l-41.7,61.85h-5.8v-72h5.8v61.75l41.7-61.75h5.8v72h-5.8Z"/>
      <path class="cls-6" d="M1119,408.38v-72h5.75v34.2l34.25-34.2h7.6l-34.45,34.6,37.45,37.4h-7.7l-37.15-36.8v36.8h-5.75Z"/>
      <path class="cls-6" d="M1194.6,408.38v-72h5.75v34.2l34.25-34.2h7.6l-34.45,34.6,37.45,37.4h-7.7l-37.15-36.8v36.8h-5.75Z"/>
      <path class="cls-6" d="M1277.8,409.88c-7.17,0-13.18-1.59-18.05-4.78-4.87-3.18-8.53-7.59-11-13.22-2.47-5.63-3.7-12.13-3.7-19.5s1.23-13.87,3.7-19.5c2.47-5.63,6.13-10.04,11-13.22,4.87-3.18,10.88-4.78,18.05-4.78s13.17,1.59,18.03,4.78c4.85,3.18,8.51,7.59,10.97,13.22,2.47,5.63,3.7,12.13,3.7,19.5s-1.23,13.87-3.7,19.5c-2.47,5.63-6.12,10.04-10.97,13.22-4.85,3.18-10.86,4.78-18.03,4.78ZM1277.8,404.23c5.9.03,10.82-1.31,14.75-4.02,3.93-2.72,6.88-6.48,8.85-11.28s2.95-10.32,2.95-16.55-.98-11.75-2.95-16.55-4.92-8.55-8.85-11.25c-3.93-2.7-8.85-4.05-14.75-4.05-5.9-.03-10.81,1.3-14.72,4-3.92,2.7-6.86,6.46-8.83,11.27-1.97,4.82-2.98,10.34-3.05,16.58-.07,6.23.89,11.74,2.88,16.53,1.98,4.78,4.96,8.53,8.92,11.25,3.97,2.72,8.9,4.07,14.8,4.07Z"/>
      <path class="cls-6" d="M1315.35,420.38v-17.6c2.93,0,5.27-.75,7-2.25s3.05-3.49,3.95-5.98c.9-2.48,1.58-5.22,2.03-8.22s.83-6.02,1.12-9.05c.5-4.53.9-8.9,1.2-13.1.3-4.2.56-8.54.77-13.02s.46-9.41.73-14.78h43.55v66.4h5.1v17.6h-5.8v-12h-53.9v12h-5.75ZM1327.8,402.78h42.15v-60.8h-32.3c-.2,4.23-.41,8.39-.62,12.48-.22,4.08-.48,8.18-.78,12.3-.3,4.12-.67,8.36-1.1,12.72-.4,3.9-.86,7.36-1.38,10.38-.52,3.02-1.24,5.6-2.18,7.75-.93,2.15-2.2,3.88-3.8,5.18Z"/>
      <path class="cls-6" d="M1386.8,408.38l25.5-72h7.15l25.5,72h-6.1l-24.5-69h2.9l-24.35,69h-6.1ZM1397.35,390.28v-5.45h37v5.45h-37Z"/>
    </g>
    <path class="cls-9" d="M1190.81,73.35c12.94,0,25.87-.01,38.81,0,.02,51.69.03,103.38,0,155.07-.09,6.51,1.19,13.86,6.41,18.28,4.2,3.55,9.92,3.74,15.15,3.56,0,10.85.01,21.71,0,32.56-12.44,1.58-25.73,1.7-37.3-3.75-8.01-3.66-14.5-10.34-18.05-18.38-4.1-9.01-5.25-19.06-5.03-28.87.03-52.83-.01-105.64.02-158.47h0Z"/>
    <path class="cls-9" d="M1935.75,73.34c4.51.01,9.05.01,13.58.01.02,57.7.01,115.4,0,173.12.11,7.18,1.12,15.39,6.89,20.38,4.63,4.04,11.13,4.18,16.94,3.56-.02,4.26-.03,8.51.02,12.77-9.56,1.62-20.17-.19-27.55-6.79-6.86-5.95-9.81-15.28-9.9-24.15.01-59.63-.01-119.26.01-178.89h0Z"/>
    <path class="cls-9" d="M558.57,104.07c16.75-13.66,38.17-21.01,59.66-21.95,27.87-1.64,56.99,7.4,76.93,27.43-6.18,10.37-12.68,20.53-18.98,30.83-13.59-12.29-31.5-20.63-50.06-20.28-16.67-.13-33.39,7.21-44.16,20.01-20.87,24.74-20.04,64.89,1.84,88.75,11.5,12.63,28.73,19.48,45.73,18.87,20.24-.19,38.95-10.36,53.88-23.39,2.18,12.27,6.67,24.09,13.04,34.8-31.74,28.24-80.49,34.8-118.78,16.63-18.98-8.91-34.8-24.37-44.12-43.15-11.33-22.51-13.74-48.98-8.47-73.47,4.63-21.38,16.36-41.33,33.49-55.06h0Z"/>
    <path class="cls-9" d="M1281.23,81.87c4.63-.02,9.25-.01,13.89-.01.01,14.74-.02,29.48.01,44.22,13.98-.01,27.95-.01,41.93,0,.01,4.16.01,8.32,0,12.48-13.98-.02-27.96-.01-41.93-.01-.03,28.46.01,56.91-.02,85.37-.02,12.74,2.6,26.44,11.5,36.11,8.49,9.33,21.97,12.56,34.17,10.76-.03,4.03-.03,8.05-.02,12.08-12.82,2.38-26.84.61-37.73-6.89-9.74-6.51-15.94-17.21-18.9-28.36-3.24-11.79-2.94-24.13-2.89-36.24,0-43.17-.01-86.34,0-129.51h0Z"/>
    <path class="cls-9" d="M1793.16,133.47c15.39-10.22,34.62-13.86,52.81-11.52,14.37,1.72,28.47,7.66,38.83,17.93,13.04,12.25,19.68,30.1,20.57,47.75.12,5.37.11,10.77-.31,16.13-44.21-.02-88.42.01-132.63-.01-.24,19.48,7.61,39.2,22.08,52.42,19.35,17.99,49.67,22.3,73.53,11.18,8.04-3.59,15.11-9.05,21.12-15.45,2.45,3.88,4.97,7.71,7.54,11.51-26.69,26.27-71.68,29.67-102.65,9.07-15.95-10.36-27.71-26.82-32.76-45.13-4.69-16.61-4.22-34.54.66-51.06,5.11-17.25,16.01-32.97,31.19-42.81h0ZM1797.93,146.18c-13.98,10.75-22.1,27.63-24.72,44.81h117.79c.13-14.84-4.96-30.08-15.44-40.8-19.69-21.11-55.48-21.53-77.62-4.01h0Z"/>
    <path class="cls-9" d="M770.8,123.83c19-3.04,39.03-.75,56.42,7.67,15.49,7.39,28.73,19.72,36.58,35.05,9.34,17.77,11.25,39.02,6.49,58.42-4.58,18.74-16.52,35.48-32.6,46.11-30.66,20.42-73.94,19.76-103.88-1.76-15.94-11.36-27.25-28.95-30.98-48.17-3.65-18.7-1.3-38.75,7.81-55.6,11.94-22.47,35.23-37.77,60.16-41.71h0ZM778.61,156.6c-12.11,2.17-23.19,9.54-29.82,19.9-13.23,20.28-9.88,50.65,9.41,66,12.43,10.25,30.38,12.8,45.34,7.1,11.68-4.38,21.18-13.95,25.78-25.5,7.8-19.17,3.55-43.48-12.46-57.23-10.32-9.03-24.81-12.91-38.26-10.27h0Z"/>
    <path class="cls-9" d="M1041.28,127.96c26.48-9.92,58.25-6.7,80.64,11.18-.01-4.35,0-8.71,0-13.05,12.47-.02,24.93-.02,37.41-.01.02,52.07.02,104.12,0,156.19-12.46.02-24.92-.03-37.37.02-.03-4.19-.04-8.39-.04-12.57-13.46,10.68-30.72,16.01-47.8,15.98-18.34.47-36.96-4.81-51.75-15.78-15.38-11.36-26.25-28.48-30.22-47.16-4.82-22.52-.88-47.25,12.32-66.32,8.9-13.04,22.03-23.03,36.82-28.47h0ZM1068.97,155.6c-14.16,2.09-27.01,11.33-33.44,24.12-6.81,13.13-7.39,29.16-2.17,42.94,4.22,11.02,12.86,20.26,23.61,25.13,8.84,3.95,18.94,5.18,28.44,3.15,12.58-2.45,23.89-10.6,30.14-21.79,11.74-20.36,7.79-49.22-10.95-64.1-9.83-7.97-23.13-11.51-35.63-9.45h0Z"/>
    <path class="cls-9" d="M958.83,129.01c8.33-4.31,18.04-6.25,27.31-4.39.01,12.82-.04,25.65.03,38.47-12.71-2.6-26.93-.2-36.6,8.9-12.47,11.79-17.5,29.43-18.36,46.13-.16,21.37-.03,42.76-.07,64.14h-39.12V126.07c12.56,0,25.14-.01,37.7,0-.01,11.87.05,23.73-.05,35.6,5.33-13.95,15.9-25.8,29.14-32.67h0Z"/>
    <path class="cls-9" d="M1404.45,129.16c9.56-5.48,21.07-6.8,31.82-4.81.01,4.6-.01,9.2.04,13.79-10.61-2.05-21.79.83-30.44,7.19-20.91,15.68-29.62,42.97-29.68,68.26,0,22.89-.01,45.79,0,68.68-4.54.01-9.07,0-13.61.01,0-52.07-.01-104.13.01-156.2h13.59c.02,12.77-.06,25.53.05,38.3,5.4-14.25,14.67-27.69,28.22-35.22h0Z"/>
    <path class="cls-9" d="M1466.32,138.92c25.53-18.66,62.23-20.75,89.46-4.51,10.69,6.32,19.68,15.37,26.2,25.93.01-11.42-.01-22.85,0-34.27h13.61c.01,52.07-.01,104.12,0,156.19h-13.61c0-10.23-.01-20.44,0-30.67-11.61,17.77-31.2,29.65-52.01,33.16-18.21,3.07-37.55.63-53.98-7.99-12.88-6.52-23.74-16.8-31.19-29.15-11.74-19.43-14.64-43.78-8.53-65.58,4.76-17.22,15.56-32.67,30.05-43.11h0ZM1505.59,136.36c-22.74,2.87-43.14,18.55-52.12,39.58-8.4,19.06-7.88,41.83,1.11,60.58,5.65,11.83,14.92,21.85,26.29,28.37,18.2,10.5,41.31,11.74,60.64,3.61,11.55-4.84,21.63-13.13,28.6-23.55,11.42-16.93,14.64-38.86,9.56-58.53-4.16-16.41-14.6-31.19-28.92-40.29-13.23-8.5-29.58-12.02-45.15-9.77h0Z"/>
    <path class="cls-9" d="M1617.27,126.1c4.93-.03,9.88-.02,14.82-.02,11.28,28.77,22.57,57.52,33.88,86.26,6.55,17.46,14.42,34.48,19.3,52.52,4.1-15.09,10.4-29.43,16.03-43.99,12.43-31.6,24.79-63.23,37.28-94.8,4.83.01,9.66,0,14.49.02-20.42,52.04-40.84,104.1-61.2,156.17-4.37.02-8.72.01-13.07,0-20.53-52.04-41.05-104.09-61.52-156.15h0Z"/>
  </g>
  <path class="cls-4" d="M397.39,411.95c-42.2,38.71-98.46,62.34-160.24,62.34s-118.04-23.63-160.24-62.34h320.49Z"/>
  <path class="cls-2" d="M474.23,242.47c-.43,19.21-3.13,37.86-7.87,55.68H7.93C3.2,280.32.49,261.68.07,242.47h474.16Z"/>
  <path class="cls-1" d="M449.17,130.83c12.63,25.14,20.93,52.83,23.9,82.1H1.22c2.97-29.27,11.27-56.96,23.91-82.1h424.04Z"/>
  <path class="cls-8" d="M237.15,0c72.7,0,137.74,32.72,181.24,84.23H55.91C99.4,32.72,164.45,0,237.15,0Z"/>
  <path class="cls-3" d="M466.36,298.14c-11.79,44.39-36.11,83.67-68.97,113.81H76.9c-32.86-30.14-57.18-69.42-68.97-113.81h458.43Z"/>
  <path class="cls-5" d="M473.07,212.93c.81,7.96,1.22,16.04,1.22,24.22,0,1.78-.03,3.55-.07,5.32H.07c-.04-1.77-.07-3.54-.07-5.32,0-8.18.41-16.25,1.22-24.22h471.85Z"/>
  <path class="cls-7" d="M418.39,84.23c12,14.2,22.35,29.83,30.78,46.61H25.13c8.43-16.77,18.78-32.4,30.78-46.61h362.48Z"/>
</svg>